Coordinates
version=1
nRows=10
nColumns=22
inDegrees=yes

Units are S.I. units (second, meters, Newtons, ...)
If the header above contains a line with 'inDegrees', this indicates whether rotational values are in degrees (yes) or radians (no).

endheader
time	pelvis_tilt	pelvis_list	pelvis_rotation	pelvis_tx	pelvis_ty	pelvis_tz	hip_flexion_r	hip_adduction_r	hip_rotation_r	knee_angle_r	ankle_angle_r	subtalar_angle_r	hip_flexion_l	hip_adduction_l	hip_rotation_l	knee_angle_l	ankle_angle_l	subtalar_angle_l	lumbar_extension	lumbar_bending	lumbar_rotation
      4.90000000	     -4.41355477	      0.49565378	   -103.48989452	      0.45434495	      0.92519331	      0.39721399	     -0.07977761	     14.52160797	      8.37815272	    -15.49290169	     10.37368423	    -10.56799858	     27.52452098	    -10.96864030	      8.29528156	    -49.95067397	      6.11627467	     -3.02588761	     -7.49558156	      3.97069205	      2.21088353
      4.91000000	     -4.32894796	      0.54845901	   -104.49510878	      0.45330531	      0.92535077	      0.40433603	     -0.74462169	     14.27309098	      9.34132687	    -15.31451439	     10.53924300	    -10.52932032	     27.66434875	    -10.73755180	      8.65496888	    -47.16250697	      6.37154969	     -2.91256277	     -7.44167687	      3.91023792	      2.50510294
      4.92000000	     -4.24463073	      0.57728518	   -105.44138013	      0.45236941	      0.92547722	      0.41152408	     -1.44628742	     13.98820046	     10.22607636	    -15.08609008	     10.70668132	    -10.47005901	     27.70405349	    -10.43995655	      9.11696980	    -44.25651230	      6.48953932	     -2.59991034	     -7.40218485	      3.86181200	      2.71696963
      4.93000000	     -4.16036721	      0.62938862	   -106.34998212	      0.45146979	      0.92546308	      0.41873458	     -2.10787079	     13.68951645	     11.04036493	    -14.86283256	     10.89955857	    -10.38326026	     27.69927841	    -10.11120871	      9.68216164	    -41.25307032	      6.51614865	     -2.07568935	     -7.32461711	      3.82969583	      2.87971410
      4.94000000	     -4.07944957	      0.70291598	   -107.23032847	      0.45056733	      0.92530013	      0.42595241	     -2.72758669	     13.38507317	     11.80170897	    -14.65497477	     11.11793938	    -10.27133879	     27.65275961	     -9.78190207	     10.32728443	    -38.17222897	      6.47921058	     -1.37768006	     -7.21747485	      3.81473506	      3.00575329
      4.95000000	     -4.03608762	      0.81353024	   -108.05315767	      0.44965967	      0.92495755	      0.43321419	     -3.32335310	     13.11922823	     12.48958988	    -14.41717714	     11.28685420	    -10.13598171	     27.59124027	     -9.49416311	     11.09078955	    -35.04445851	      6.42352845	     -0.40888007	     -7.06991315	      3.85883242	      3.08298556
      4.96000000	     -3.98483219	      0.93955016	   -108.89277999	      0.44863208	      0.92444672	      0.44045439	     -3.86442899	     12.84808745	     13.16928932	    -14.24387032	     11.53235667	     -9.99567369	     27.48990688	     -9.25933759	     11.81400966	    -31.88101092	      6.37172343	      0.43068762	     -6.90306754	      3.89294256	      3.17907785
      4.97000000	     -3.93342604	      1.07057177	   -109.74243631	      0.44748706	      0.92377463	      0.44768664	     -4.36984076	     12.57878494	     13.85028870	    -14.12737442	     11.85351632	     -9.85654595	     27.35685865	     -9.09185591	     12.44960183	    -28.72241270	      6.33137056	      1.12693680	     -6.73021219	      3.92246267	      3.26595556
      4.98000000	     -3.94940378	      1.20106351	   -110.55639491	      0.44627865	      0.92297401	      0.45496587	     -4.90701330	     12.37024271	     14.47074750	    -13.98575222	     12.10619622	     -9.70787007	     27.19644331	     -9.03081749	     13.05701414	    -25.62143688	      6.35125931	      1.95590058	     -6.58124514	      4.01953772	      3.38312169
      4.99000000	     -3.97813265	      1.33533664	   -111.36002300	      0.44497500	      0.92200730	      0.46226742	     -5.42427666	     12.17910717	     15.10056717	    -13.88982754	     12.40216613	     -9.56599660	     27.03905971	     -9.03883758	     13.50769023	    -22.61971253	      6.41293902	      2.67667831	     -6.43406500	      4.12451014	      3.44966051
